<?xml version="1.0" standalone="no"?>
<!DOCTYPE svg PUBLIC "-//W3C//DTD SVG 20010904//EN"
 "http://www.w3.org/TR/2001/REC-SVG-20010904/DTD/svg10.dtd">
<svg version="1.0" xmlns="http://www.w3.org/2000/svg"
 width="557.000000pt" height="523.000000pt" viewBox="0 0 557.000000 523.000000"
 preserveAspectRatio="xMidYMid meet">

<g transform="translate(0.000000,523.000000) scale(0.100000,-0.100000)"
fill="#000000" stroke="none">
<path d="M3601 5193 c-13 -14 -34 -58 -47 -96 -38 -110 -65 -164 -90 -177 -32
-17 -102 1 -176 46 -69 42 -190 88 -273 103 -183 35 -533 32 -749 -4 -339 -58
-666 -205 -921 -413 -131 -107 -211 -201 -355 -417 -29 -44 -66 -96 -81 -115
-124 -160 -263 -485 -345 -808 -35 -141 -34 -170 5 -191 36 -19 56 -12 113 43
30 29 94 75 141 100 78 43 91 47 130 41 33 -5 62 -1 118 18 41 14 121 32 179
41 58 8 127 24 153 35 27 12 54 21 60 21 37 0 98 28 184 85 53 36 105 65 114
65 28 0 29 -38 2 -108 -62 -166 -93 -309 -104 -487 -6 -93 -7 -207 -4 -252 10
-125 -13 -152 -76 -87 -18 20 -59 53 -89 74 -100 69 -107 81 -114 198 -10 165
-59 266 -149 308 -61 28 -106 30 -176 8 -103 -34 -176 -139 -201 -292 -16 -96
24 -221 104 -326 20 -26 36 -58 36 -70 0 -35 -64 -123 -240 -329 -198 -233
-264 -349 -296 -527 -42 -224 -40 -294 6 -386 18 -35 19 -39 3 -56 -9 -10 -25
-18 -36 -18 -28 0 -74 -30 -86 -57 -15 -32 -15 -387 0 -415 26 -49 -8 -48
1287 -48 1365 0 1237 8 1240 -81 4 -128 120 -305 275 -418 182 -133 486 -196
707 -146 102 23 245 85 324 140 145 102 207 212 241 430 20 125 36 159 128
266 40 47 81 104 90 127 31 79 17 176 -35 234 -41 46 -39 54 27 103 72 53 89
68 175 155 332 330 540 845 540 1333 0 517 -226 1022 -588 1319 -129 105 -338
228 -472 278 -19 7 -39 17 -45 21 -17 12 -222 68 -313 85 -50 9 -119 14 -167
12 -128 -5 -136 10 -79 148 43 104 93 263 101 321 7 55 -29 119 -86 151 -23
13 -41 27 -41 33 0 17 -25 7 -49 -18z m71 -113 c2 -16 1 -27 -4 -24 -4 3 -8
-3 -8 -13 0 -10 -9 -36 -19 -57 -25 -47 -44 -99 -42 -109 1 -4 -3 -16 -9 -27
-12 -22 -2 -59 11 -39 6 10 11 6 18 -14 9 -23 5 -43 -19 -114 -28 -82 -37
-152 -24 -187 5 -14 24 -15 148 -10 135 6 146 5 269 -25 306 -74 575 -222 793
-436 255 -250 404 -543 465 -915 18 -106 20 -154 16 -310 -9 -309 -55 -494
-193 -775 -241 -492 -710 -850 -1209 -923 -132 -20 -146 -21 -140 -11 8 12
-44 6 -69 -8 -10 -6 -28 -8 -40 -6 -17 4 -18 3 -6 -6 12 -9 8 -10 -15 -4 -16
4 -41 7 -55 7 -193 -7 -240 -5 -256 10 -8 9 -20 16 -27 16 -6 0 -2 -7 9 -15
18 -14 17 -15 -11 -9 -16 3 -37 8 -45 10 -8 3 -37 7 -65 10 -27 3 -66 11 -85
18 -19 7 -40 11 -47 9 -6 -2 -14 1 -18 6 -3 6 -15 11 -27 11 -44 0 -288 101
-288 119 0 6 -6 8 -13 6 -16 -7 -178 90 -276 163 -89 67 -245 221 -304 300
-23 32 -49 65 -58 75 -30 34 -139 233 -173 319 -45 111 -81 231 -102 338 -19
99 -33 456 -17 447 6 -4 8 -19 5 -34 -4 -23 -2 -26 8 -16 7 7 13 30 12 53 -1
27 2 40 12 40 22 0 46 34 36 50 -5 8 -9 22 -9 30 0 10 2 11 6 3 6 -16 29 -17
39 -1 4 7 3 8 -4 4 -8 -5 -12 3 -12 25 0 26 3 31 20 26 15 -4 20 0 20 15 0 15
-5 18 -19 13 -11 -3 -22 -1 -26 5 -3 5 -1 10 5 10 7 0 10 6 7 14 -8 20 4 28
20 14 11 -8 18 -6 33 10 11 12 20 26 20 32 0 5 5 10 11 10 6 0 9 -7 6 -15 -4
-8 -2 -17 4 -20 19 -12 22 28 3 43 -14 11 -15 13 -3 9 18 -6 64 38 55 52 -3 4
8 27 24 51 16 24 27 47 24 52 -8 12 6 68 16 68 5 0 21 -11 36 -25 28 -26 55
-35 35 -12 -11 14 6 77 21 77 4 0 8 12 8 28 1 33 24 67 47 67 14 0 37 31 69
94 4 7 22 29 40 49 31 35 34 36 47 18 12 -17 15 -17 30 -2 9 9 14 23 10 32 -3
9 0 14 8 12 10 -2 15 11 17 45 3 38 7 47 21 47 20 0 33 22 25 43 -3 8 6 13 26
15 28 2 30 0 30 -30 0 -30 1 -31 15 -12 11 14 17 16 23 7 10 -15 22 -6 44 32
10 17 22 29 28 27 7 -1 10 8 8 21 -3 27 33 77 55 77 9 0 20 -8 26 -17 8 -16
10 -14 16 9 4 16 18 32 35 40 16 7 26 16 24 20 -3 5 -11 5 -17 1 -7 -3 -3 4 8
16 11 13 31 27 43 32 13 5 26 17 29 27 2 10 19 24 36 32 38 16 48 29 41 52 -3
12 3 18 26 23 16 4 30 13 30 21 0 8 11 20 25 26 14 6 28 21 31 32 3 12 26 37
51 57 36 30 56 37 105 43 59 6 72 3 156 -37 16 -8 28 -7 47 3 14 8 21 16 16
19 -6 4 -2 25 9 51 10 25 23 79 30 120 7 41 16 89 20 107 6 23 4 33 -6 37 -22
8 -17 26 10 36 14 5 32 19 40 32 18 28 106 247 106 264 0 26 38 2 42 -26z m30
-86 c-7 -31 -19 -70 -27 -87 -8 -16 -15 -38 -15 -49 0 -10 -4 -18 -10 -18 -15
0 0 93 18 107 9 8 16 31 18 55 3 72 3 73 15 61 9 -9 9 -26 1 -69z m-366 -139
c7 -7 -33 -10 -120 -10 -125 -1 -191 -9 -301 -40 -27 -8 -75 -19 -105 -26 -60
-13 -169 -53 -232 -85 -14 -8 -33 -14 -42 -14 -15 0 -193 -78 -226 -100 -8 -5
-51 -28 -95 -50 -44 -23 -107 -57 -140 -76 -33 -18 -72 -39 -87 -46 -16 -7
-28 -16 -28 -20 0 -4 -6 -8 -13 -8 -8 0 -22 -9 -32 -20 -10 -11 -22 -20 -27
-20 -5 0 -24 -11 -42 -25 -18 -14 -39 -25 -45 -25 -7 0 -26 -9 -43 -21 -16
-12 -31 -19 -34 -17 -2 3 37 31 88 64 51 32 95 61 98 64 3 4 17 13 31 21 95
51 116 63 130 75 17 15 176 102 239 131 19 9 53 25 75 36 83 43 175 84 205 92
14 3 34 10 45 14 78 32 110 43 190 65 137 36 194 47 265 51 92 5 160 16 160
26 0 9 68 -19 86 -36z m-1736 -215 c0 -6 -8 -13 -17 -16 -10 -3 -39 -14 -65
-25 -56 -23 -64 -23 -71 -5 -4 10 1 12 16 9 22 -4 22 -4 2 12 -19 16 -19 16 9
9 23 -6 27 -4 21 7 -7 12 -6 12 7 1 14 -11 21 -11 45 2 33 18 53 20 53 6z
m-156 -66 c3 -9 1 -12 -4 -9 -6 3 -10 0 -10 -8 0 -8 -9 -22 -20 -32 -11 -10
-17 -21 -15 -25 3 -5 -4 -6 -15 -3 -15 4 -20 0 -20 -15 0 -17 -8 -22 -44 -27
-45 -7 -68 -31 -41 -41 8 -4 15 -15 15 -25 0 -28 -17 -23 -24 6 -4 14 -10 25
-15 25 -10 0 -24 -38 -22 -57 1 -7 -4 -10 -12 -7 -8 3 -19 -1 -25 -9 -10 -12
-8 -14 13 -12 14 2 23 -1 19 -6 -3 -5 -12 -9 -19 -9 -9 0 -12 -6 -8 -17 5 -15
3 -14 -10 2 -9 11 -17 15 -17 8 0 -20 -20 -15 -20 5 0 10 22 43 50 73 27 29
50 58 50 62 0 5 5 5 10 2 6 -3 10 -1 10 5 0 6 5 8 11 5 18 -12 61 4 55 20 -3
8 0 14 7 12 7 -1 11 4 10 11 -2 6 2 12 9 12 9 0 9 3 1 11 -9 9 -16 8 -28 -5
-9 -9 -19 -16 -23 -16 -4 0 3 10 15 21 12 12 36 23 53 24 18 2 37 8 42 13 8 8
4 9 -11 5 -12 -3 -21 -1 -21 6 0 6 7 8 17 4 11 -4 14 -3 9 5 -4 8 -2 10 8 6 8
-3 17 -12 20 -20z m-134 -84 c0 -5 -7 -10 -16 -10 -8 0 -12 5 -9 10 3 6 10 10
16 10 5 0 9 -4 9 -10z m1550 -214 c0 -22 -23 -40 -67 -55 -21 -7 -55 -26 -74
-43 -37 -33 -89 -63 -89 -51 0 13 43 53 57 53 8 0 26 11 41 25 15 14 31 25 37
25 5 0 26 14 45 30 39 33 50 36 50 16z m-1750 -26 c0 -5 -5 -10 -11 -10 -5 0
-7 5 -4 10 3 6 8 10 11 10 2 0 4 -4 4 -10z m526 -55 c-11 -8 -25 -15 -30 -15
-6 1 0 7 14 15 32 19 40 18 16 0z m-546 -33 c0 -9 -62 -34 -68 -27 -3 2 1 11
8 20 13 15 60 21 60 7z m490 -7 c-7 -8 -17 -15 -22 -15 -6 0 -5 7 2 15 7 8 17
15 22 15 6 0 5 -7 -2 -15z m-30 -29 c0 -2 -7 -7 -16 -10 -8 -3 -12 -2 -9 4 6
10 25 14 25 6z m1070 -5 c0 -11 -38 -36 -70 -45 l-25 -8 25 18 c14 10 27 21
30 24 4 6 20 14 38 19 1 1 2 -3 2 -8z m140 -15 c0 -3 -4 -8 -10 -11 -5 -3 -10
-1 -10 4 0 6 5 11 10 11 6 0 10 -2 10 -4z m-1260 -10 c0 -2 -7 -9 -15 -16 -12
-10 -15 -10 -15 4 0 9 7 16 15 16 8 0 15 -2 15 -4z m-514 -33 c-10 -10 -19 5
-10 18 6 11 8 11 12 0 2 -7 1 -15 -2 -18z m440 -20 c-10 -10 -19 5 -10 18 6
11 8 11 12 0 2 -7 1 -15 -2 -18z m1071 -4 c-13 -13 -37 -33 -53 -45 -28 -20
-40 -24 -109 -40 -16 -4 -43 -16 -60 -28 -16 -12 -52 -27 -80 -34 -27 -7 -69
-22 -92 -33 -24 -12 -48 -19 -54 -17 -19 6 90 58 122 58 20 0 27 4 23 14 -3 8
-1 17 5 21 7 4 8 0 4 -11 -4 -12 4 -10 35 10 23 14 48 26 55 26 8 0 22 9 31
19 13 15 14 20 4 25 -7 3 -3 3 10 0 16 -4 22 -1 22 10 0 9 5 16 10 16 20 0 9
-31 -14 -40 -13 -5 -27 -13 -31 -19 -8 -13 20 -4 54 18 14 9 32 15 41 13 9 -1
34 13 55 32 44 38 60 41 22 5z m-1147 -57 c0 -4 -9 -13 -20 -20 -23 -14 -26
-8 -7 13 13 16 27 19 27 7z m-70 -67 c-7 -8 -18 -15 -24 -15 -6 0 -2 7 8 15
25 19 32 19 16 0z m-106 -97 c-38 -39 -139 -141 -225 -227 -166 -166 -247
-257 -272 -306 -8 -16 -27 -41 -42 -55 l-27 -25 7 30 c36 162 112 381 114 328
1 -13 6 -23 11 -23 6 0 8 -10 4 -24 -4 -17 0 -27 13 -34 17 -10 17 -11 1 -17
-10 -4 -15 -12 -12 -17 4 -5 20 4 38 20 148 142 181 172 188 172 4 0 8 5 8 11
0 11 78 86 106 102 8 4 14 14 14 22 0 7 9 17 20 20 11 3 20 10 20 14 0 8 89
81 98 81 3 0 -26 -32 -64 -72z m826 7 c0 -2 -10 -9 -22 -15 -22 -11 -22 -10
-4 4 21 17 26 19 26 11z m-713 -77 c-3 -8 -6 -5 -6 6 -1 11 2 17 5 13 3 -3 4
-12 1 -19z m-498 -49 c1 11 4 11 17 0 15 -12 13 -14 -10 -22 -22 -7 -24 -12
-15 -28 13 -24 -3 -48 -29 -45 -21 4 -21 9 3 74 17 46 21 50 27 30 3 -13 6
-17 7 -9z m507 -61 c-1 -15 7 -27 22 -33 32 -14 28 -21 -22 -34 -56 -14 -56
-14 -56 4 0 8 5 15 11 15 6 0 9 7 5 15 -3 9 0 15 9 15 8 0 15 9 15 20 0 11 4
20 8 20 5 0 8 -10 8 -22z m334 -48 c-59 -49 -135 -91 -176 -96 -22 -3 -64 -16
-94 -29 -34 -14 -83 -25 -130 -27 -41 -3 -63 -3 -47 -1 15 2 27 9 27 15 0 5 7
7 16 4 23 -9 70 4 52 15 -10 7 -9 9 5 9 9 0 17 5 17 10 0 6 -12 10 -26 10 -14
0 -23 -4 -20 -9 6 -9 -16 -21 -37 -21 -7 1 -5 6 4 13 9 7 16 16 15 22 -1 5 8
11 18 13 11 2 27 12 35 22 19 21 94 33 110 17 7 -7 14 -7 24 2 11 9 17 8 27
-4 10 -12 10 -15 -4 -15 -9 0 -16 -5 -16 -11 0 -6 -9 -9 -19 -6 -14 3 -18 1
-14 -10 6 -15 13 -14 93 8 19 5 64 29 100 54 75 51 90 57 40 15z m-855 -79
c-3 -6 -11 -8 -17 -5 -6 4 -5 9 3 15 16 10 23 4 14 -10z m235 -121 c-8 -5 -22
-10 -30 -10 -13 0 -13 1 0 10 8 5 22 10 30 10 13 0 13 -1 0 -10z m943 -83 c3
-8 -3 -14 -14 -14 -10 -1 -19 3 -19 8 0 6 5 7 10 4 6 -3 10 -1 10 4 0 15 7 14
13 -2z m-186 -119 c-3 -8 -6 -5 -6 6 -1 11 2 17 5 13 3 -3 4 -12 1 -19z m-12
-85 c-3 -24 -9 -43 -11 -40 -3 3 -2 29 2 58 4 30 9 48 12 41 2 -7 1 -34 -3
-59z m62 45 c-3 -8 -6 -5 -6 6 -1 11 2 17 5 13 3 -3 4 -12 1 -19z m-597 -20
c0 -5 -5 -6 -11 -2 -8 4 -9 -1 -4 -17 5 -16 4 -21 -3 -14 -5 6 -13 20 -16 32
-6 18 -4 20 14 16 11 -3 20 -10 20 -15z m51 -59 c22 -43 39 -145 39 -236 0
-73 19 -101 110 -163 70 -48 172 -157 200 -216 12 -24 23 -65 24 -91 1 -35 11
-62 34 -98 61 -93 65 -172 16 -273 -62 -127 -300 -313 -764 -597 -41 -25 -95
-59 -120 -75 -53 -34 -100 -38 -124 -11 -15 17 -16 28 -6 102 8 55 22 105 42
147 36 73 132 182 193 217 l42 25 58 -30 c31 -16 63 -30 71 -30 28 0 13 22
-29 40 -59 26 -93 55 -123 101 -29 47 -54 137 -54 197 0 31 -4 42 -12 39 -8
-2 -13 -21 -12 -46 1 -40 -3 -46 -55 -89 -73 -62 -198 -186 -244 -242 -34 -42
-36 -43 -28 -15 37 125 88 204 271 424 141 169 229 291 274 379 l17 32 -62 72
c-108 125 -138 231 -97 346 20 58 57 110 44 62 -6 -21 -5 -22 4 -7 6 9 8 27 5
40 -5 18 -4 19 5 7 8 -11 13 -12 16 -3 3 7 12 9 20 6 7 -3 11 -9 8 -14 -3 -5
-9 -7 -14 -4 -11 7 -34 -34 -25 -43 3 -3 9 5 12 18 6 22 7 23 14 4 7 -16 8
-17 8 -1 1 10 10 18 24 19 12 0 27 2 34 2 7 1 19 10 27 21 15 20 15 20 9 -2
-5 -21 -3 -22 33 -11 28 7 39 7 42 -1 2 -6 8 -11 13 -11 6 0 8 4 5 9 -9 14 3
38 20 38 8 0 24 -17 35 -38z m522 -24 c-3 -9 -8 -14 -10 -11 -3 3 -2 9 2 15 9
16 15 13 8 -4z m-13 -59 c-1 -21 -1 -21 -15 -2 -21 27 -20 53 0 36 8 -7 15
-22 15 -34z m50 -998 c6 -7 38 -60 72 -118 135 -231 302 -411 521 -559 57 -39
66 -57 41 -76 -16 -12 -139 -14 -789 -14 -854 0 -830 -2 -779 58 14 17 47 44
73 58 69 40 339 214 391 251 199 144 246 181 291 230 29 32 68 82 87 112 46
72 68 86 92 58z m-956 -41 c3 -18 20 -54 36 -80 l29 -47 -44 -26 c-25 -14 -72
-56 -105 -92 -87 -94 -139 -212 -140 -315 0 -46 -41 -91 -74 -82 -72 20 -91
62 -83 180 7 97 13 122 50 184 50 83 297 328 318 315 4 -2 10 -19 13 -37z
m3617 -718 c45 -16 76 -45 89 -85 18 -55 -2 -103 -78 -187 -106 -116 -140
-192 -157 -352 -7 -58 -16 -97 -28 -120 -6 -11 -12 -26 -13 -33 -6 -33 -100
-140 -177 -199 -156 -121 -359 -170 -567 -139 -210 31 -322 85 -456 221 -104
106 -164 207 -164 279 l0 41 16 -30 c44 -85 185 -221 291 -282 29 -16 50 -33
45 -38 -4 -4 -1 -5 5 -1 7 4 34 -2 60 -14 46 -20 170 -42 186 -33 4 2 7 10 7
17 0 9 -22 15 -69 19 -123 10 -271 94 -399 225 -77 79 -136 173 -147 233 -16
89 47 179 126 179 29 0 41 -5 45 -17 31 -102 124 -231 217 -299 106 -78 317
-173 346 -155 17 11 -5 27 -58 41 -67 18 -198 86 -266 137 -76 58 -142 137
-177 211 -33 67 -35 105 -8 149 49 81 107 73 330 -47 148 -79 315 -116 496
-108 l103 5 9 -41 c5 -28 14 -42 26 -44 16 -3 17 0 9 30 -4 18 -8 74 -8 123 1
75 5 99 26 145 36 78 71 114 141 149 67 34 137 41 199 20z m-1832 -75 c-11
-31 -8 -37 29 -42 81 -11 141 -79 149 -170 10 -113 -62 -197 -179 -208 -125
-11 -218 73 -218 198 0 20 6 41 13 45 7 4 23 25 36 46 12 20 29 37 36 37 12 0
55 44 83 86 12 18 12 18 7 -3 -5 -17 -2 -23 10 -23 9 0 15 6 14 13 -3 17 11
47 22 47 5 0 4 -12 -2 -26z m-159 -29 c-14 -8 -29 -14 -35 -14 -5 0 1 6 15 14
14 8 30 14 35 14 6 0 -1 -6 -15 -14z m-1820 -34 c5 -11 10 -73 10 -139 0 -94
-3 -122 -15 -132 -12 -10 -18 -10 -30 0 -19 16 -22 259 -3 278 17 17 26 15 38
-7z m273 -76 l62 -95 3 84 c2 62 7 88 18 97 31 26 44 -14 44 -139 0 -195 -30
-202 -135 -29 -22 37 -42 66 -45 67 -3 0 -5 -38 -5 -85 -1 -91 -12 -118 -40
-95 -12 10 -15 37 -15 139 0 127 6 151 37 151 7 0 41 -43 76 -95z m1084 48
c-15 -16 -18 -16 -33 -2 -14 15 -14 18 2 33 15 16 18 16 33 2 14 -15 14 -18
-2 -33z m-1452 17 c0 -12 -17 -16 -75 -20 l-75 -5 0 -30 c0 -30 0 -30 65 -33
72 -3 90 -13 70 -37 -9 -11 -31 -15 -77 -15 l-64 0 3 -37 3 -38 78 -3 c69 -3
77 -5 77 -23 0 -19 -6 -20 -102 -17 l-103 3 -3 138 -3 138 103 -3 c84 -2 103
-6 103 -18z m1563 -2 c-3 -25 -17 -32 -37 -19 -19 12 -6 41 19 41 16 0 21 -5
18 -22z m116 6 c3 -9 6 -27 6 -40 0 -14 4 -23 9 -19 6 3 16 -1 23 -9 11 -12
17 -11 43 12 l30 27 -24 -27 c-13 -14 -20 -31 -17 -36 3 -6 -8 -9 -27 -8 l-32
1 0 -65 c0 -61 1 -65 22 -62 28 4 37 -12 17 -32 -19 -20 -54 -21 -78 -3 -14
11 -20 31 -24 88 -2 41 -8 76 -13 77 -12 5 -11 32 1 32 6 0 10 13 10 28 0 44
40 72 54 36z m1780 -43 c23 -25 14 -91 -15 -117 -38 -34 -287 -15 -323 25 -15
16 -15 19 1 33 10 9 68 25 128 37 61 12 124 25 140 30 44 14 50 13 69 -8z
m-1574 1 c0 -12 -83 -52 -106 -52 -18 1 -18 1 1 16 11 8 19 20 17 25 -1 6 2 8
8 4 6 -3 8 -11 5 -16 -10 -15 8 -10 40 11 34 23 35 23 35 12z m-1182 -29 c16
-15 21 -35 25 -105 6 -91 -2 -114 -30 -85 -14 13 -19 13 -51 0 -43 -18 -77
-10 -98 23 -31 47 -3 76 99 98 40 9 33 40 -10 44 -23 2 -35 -3 -46 -19 -17
-23 -47 -20 -47 5 0 47 116 75 158 39z m124 6 c3 -9 10 -8 25 2 26 16 73 -1
73 -26 0 -15 -10 -19 -43 -15 -35 3 -47 -19 -47 -85 0 -45 -4 -66 -16 -76 -14
-11 -18 -10 -30 6 -17 22 -19 157 -4 186 12 21 36 26 42 8z m269 -7 c19 -16
23 -32 28 -101 5 -62 3 -85 -7 -93 -10 -8 -17 -7 -29 5 -14 14 -19 14 -49 -1
-41 -19 -83 -8 -100 27 -23 46 -2 69 84 91 32 8 42 15 40 28 -5 26 -54 27 -75
3 -25 -30 -45 -27 -41 6 6 50 102 72 149 35z m123 2 c5 -14 8 -14 28 0 28 20
58 20 86 0 20 -14 22 -24 22 -104 0 -90 -5 -105 -34 -94 -13 5 -16 22 -16 79
0 87 -14 108 -55 81 -23 -15 -25 -23 -25 -85 0 -68 -8 -84 -37 -74 -14 5 -19
193 -6 206 11 12 31 7 37 -9z m234 4 c16 -16 16 -218 1 -252 -13 -29 -51 -41
-79 -26 -29 15 -25 40 5 40 l25 0 0 113 c0 104 7 137 30 137 3 0 11 -5 18 -12z
m110 -92 c3 -103 -5 -129 -33 -106 -11 9 -15 34 -15 105 0 95 4 108 30 103 12
-3 16 -22 18 -102z"/>
<path d="M3622 5040 c0 -14 2 -19 5 -12 2 6 2 18 0 25 -3 6 -5 1 -5 -13z"/>
<path d="M3536 4721 c-3 -4 -8 -27 -12 -50 -5 -29 -10 -38 -15 -29 -8 13 -11
0 -13 -72 -1 -14 -8 -39 -18 -55 -14 -27 -14 -33 -1 -50 15 -20 15 -20 13 0
-3 35 11 64 27 58 12 -5 13 -2 5 13 -11 22 -8 52 7 67 6 6 11 25 11 43 0 17 7
37 15 44 8 7 15 16 15 20 0 11 -29 21 -34 11z"/>
<path d="M2470 3835 c0 -8 -4 -15 -10 -15 -5 0 -10 -6 -10 -14 0 -8 -6 -16
-14 -19 -15 -6 -15 -39 0 -44 5 -2 19 18 32 44 25 53 27 63 12 63 -5 0 -10 -7
-10 -15z"/>
<path d="M3329 3649 l-56 -59 -74 0 c-152 -1 -251 -88 -315 -277 -24 -71 -26
-88 -21 -188 4 -95 9 -119 35 -177 59 -130 176 -205 279 -179 65 17 94 34 144
85 58 59 106 154 126 251 13 68 14 93 4 168 l-11 87 53 53 c40 39 56 64 65 99
13 51 16 98 6 98 -4 0 -33 -25 -66 -55 -32 -30 -68 -59 -78 -65 -26 -14 -26 4
-1 23 35 24 71 98 71 147 l-1 45 -31 -40 c-44 -55 -109 -117 -116 -111 -3 3 2
14 11 24 32 35 62 135 40 131 -5 -1 -33 -28 -64 -60z m-84 -148 c55 -26 99
-72 132 -139 35 -75 44 -218 18 -308 -34 -118 -109 -216 -188 -243 l-31 -11
31 32 c64 66 82 188 40 269 -28 53 -80 85 -120 75 -25 -6 -27 -10 -27 -59 0
-28 5 -70 10 -92 5 -22 7 -41 4 -44 -6 -7 -53 40 -72 72 -9 15 -19 27 -23 27
-14 0 -31 -101 -25 -143 4 -24 16 -58 27 -76 31 -50 14 -50 -35 1 -164 171
-106 539 99 634 60 29 106 30 160 5z"/>
<path d="M4197 3566 c-45 -58 -83 -75 -162 -74 -87 2 -131 -18 -200 -87 -94
-94 -141 -234 -132 -393 7 -118 44 -204 119 -274 58 -55 108 -73 187 -65 185
19 328 291 281 535 l-9 52 48 48 c47 47 91 135 91 182 0 27 -5 25 -48 -16 -45
-45 -122 -95 -134 -88 -4 3 6 17 22 31 38 32 60 73 60 113 0 39 -9 38 -43 -5
-52 -66 -112 -88 -67 -26 20 28 30 84 18 96 -3 3 -17 -10 -31 -29z m-102 -165
c113 -51 181 -218 155 -383 -19 -126 -76 -227 -158 -279 -58 -37 -73 -37 -39
-1 38 40 57 93 57 162 0 74 -17 117 -59 153 -37 31 -98 37 -108 11 -3 -9 -1
-50 5 -92 6 -42 9 -79 6 -81 -7 -7 -73 61 -80 83 -6 18 -7 18 -20 -5 -21 -38
-18 -153 6 -199 27 -53 11 -50 -39 6 -76 86 -105 220 -77 352 46 219 203 341
351 273z"/>
<path d="M2502 2946 c-29 -15 -98 -99 -123 -149 -43 -83 -90 -301 -61 -283 6
3 14 21 17 39 9 40 59 152 72 160 6 4 13 -35 16 -100 8 -123 48 -325 84 -427
125 -350 377 -606 688 -697 70 -21 99 -24 240 -23 138 1 173 4 256 26 372 100
630 311 903 740 37 60 72 106 76 103 5 -3 14 -30 20 -60 16 -77 32 -59 24 28
-7 92 -50 308 -70 355 -14 33 -16 35 -26 18 -6 -12 -8 -46 -4 -91 l7 -72 -46
-56 c-90 -111 -264 -229 -435 -295 -30 -12 -101 -33 -158 -46 -535 -128 -1107
44 -1366 412 -56 81 -126 210 -126 233 0 8 12 46 25 84 36 100 32 125 -13 101z
m203 -615 c51 -49 186 -141 265 -181 356 -179 763 -185 1234 -18 192 67 190
67 116 -1 -229 -214 -526 -328 -835 -319 l-110 3 -5 50 -5 50 -8 -35 c-18 -76
-13 -72 -75 -64 -254 31 -462 191 -582 447 -22 47 -40 88 -40 91 0 13 15 5 45
-23z"/>
<path d="M1315 3500 c3 -5 11 -10 16 -10 6 0 7 5 4 10 -3 6 -11 10 -16 10 -6
0 -7 -4 -4 -10z"/>
<path d="M1366 3491 c-4 -5 3 -7 14 -4 23 6 26 13 6 13 -8 0 -17 -4 -20 -9z"/>
<path d="M1090 3040 c0 -5 7 -10 15 -10 8 0 15 5 15 10 0 6 -7 10 -15 10 -8 0
-15 -4 -15 -10z"/>
<path d="M1340 2354 c-59 -27 -110 -92 -144 -182 -37 -102 -39 -112 -23 -112
9 0 19 18 26 46 26 101 97 205 158 230 18 8 55 14 83 14 38 0 50 4 50 15 0 24
-90 17 -150 -11z"/>
<path d="M1217 907 c-31 -8 -38 -13 -35 -31 4 -30 53 -35 68 -6 19 36 10 47
-33 37z"/>
<path d="M1610 906 c-44 -14 -50 -49 -9 -54 30 -3 52 18 47 46 -3 18 -6 19
-38 8z"/>
</g>
</svg>
